<svg xmlns="http://www.w3.org/2000/svg" width="419" height="48">
  <style>
    .st0{fill:#ddd}
  </style>
  <path class="st0" d="M7.1 40.9c-2.2-2.2-3.9-4.7-5.2-7.7C.7 30.3 0 27.2 0 24c0-3.3.7-6.4 1.9-9.4 1.3-2.9 3-5.4 5.2-7.6 2.2-2.2 4.7-3.9 7.7-5.2 2.9-1.3 6-1.9 9.3-1.9s6.4.6 9.3 1.9c2.9 1.3 5.5 3 7.7 5.2l-5.7 5.6C32.2 9.5 28.4 8 24.1 8c-2.2 0-4.3.4-6.2 1.2-2 .8-3.7 2-5.1 3.5-1.4 1.4-2.6 3.1-3.4 5-.8 2-1.3 4-1.3 6.2s.4 4.3 1.3 6.2c.8 1.9 2 3.6 3.5 5 1.4 1.5 3.1 2.6 5 3.5 2 .8 4 1.2 6.2 1.2l9.3 6.2c-2.9 1.3-6 1.9-9.3 1.9s-6.4-.7-9.3-1.9c-3-1.2-5.5-2.9-7.7-5.1zM83.7 7.1c4.7 4.7 7.1 10.3 7.1 16.9 0 6.7-2.4 12.3-7.1 16.9C79 45.6 73.5 48 66.8 48c-6.7 0-12.2-2.4-16.9-7.1-4.7-4.7-7.1-10.3-7.1-16.9 0-6.6 2.4-12.2 7.1-16.9C54.5 2.4 60.1 0 66.8 0 73.5 0 79 2.4 83.7 7.1zm-28.2 5.6c-3.1 3.1-4.6 6.9-4.6 11.3s1.5 8.2 4.6 11.3c3.1 3.1 7 4.6 11.3 4.6s8.2-1.5 11.3-4.6c3.2-3.2 4.7-7 4.7-11.3s-1.6-8.2-4.7-11.3C75 9.6 71.2 8 66.8 8s-8.2 1.5-11.3 4.7zM108.5 0v29.1l-8 8V0h8zm24 40v8h-32l8-8h24zM146.8 0v29.1l-8 8V0h8zm24 40v8h-32l8-8h24zM215.3 28c0 5.5-1.9 10.3-5.9 14.2-3.9 3.9-8.7 5.8-14.2 5.8s-10.2-1.9-14.1-5.8-5.8-8.7-5.8-14.2V0h8v28c0 3.3 1.1 6.1 3.4 8.4 2.3 2.4 5.2 3.5 8.5 3.5s6.1-1.2 8.5-3.5c2.3-2.3 3.6-5.2 3.6-8.4h8zM232.8 28c-3.9 0-7.2-1.4-9.9-4.1-2.7-2.8-4.1-6.1-4.1-10 0-3.8 1.4-7.1 4.1-9.8 2.7-2.8 6-4.1 9.9-4.1v8c-.8 0-1.6.1-2.3.4-.8.3-1.4.7-2 1.3-.5.5-1 1.2-1.3 1.9-.3.7-.4 1.5-.4 2.3 0 1.7.5 3.1 1.7 4.3 1.2 1.2 2.6 1.8 4.3 1.8h11.9c3.9 0 7.2 1.4 9.9 4.1 2.8 2.8 4.1 6.1 4.1 9.9s-1.4 7.1-4.1 9.9c-2.7 2.7-6 4.1-9.9 4.1v-8c.8 0 1.6-.1 2.3-.4.8-.3 1.4-.7 2-1.3s1-1.1 1.3-1.9c.3-.7.5-1.5.5-2.3 0-1.6-.7-3-1.8-4.2-1.2-1.2-2.6-1.8-4.3-1.8h-11.9zM276.6 28c-3.9 0-7.2-1.4-9.9-4.1-2.7-2.8-4.1-6.1-4.1-10 0-3.8 1.4-7.1 4.1-9.8 2.7-2.8 6-4.1 9.9-4.1v8c-.8 0-1.6.1-2.3.4-.8.3-1.4.7-2 1.3-.5.5-1 1.2-1.3 1.9-.3.7-.4 1.5-.4 2.3 0 1.7.5 3.1 1.7 4.3 1.2 1.2 2.6 1.8 4.3 1.8h11.9c3.9 0 7.2 1.4 9.9 4.1 2.8 2.8 4.1 6.1 4.1 9.9s-1.4 7.1-4.1 9.9c-2.7 2.7-6 4.1-9.9 4.1v-8c.8 0 1.6-.1 2.3-.4.8-.3 1.4-.7 2-1.3s1-1.1 1.3-1.9c.3-.7.5-1.5.5-2.3 0-1.6-.7-3-1.8-4.2-1.2-1.2-2.6-1.8-4.3-1.8h-11.9zM318.6 40l-8 8V0l8 7.9V40zM364.7 7.1c4.7 4.7 7.1 10.3 7.1 16.9 0 6.7-2.4 12.3-7.1 16.9-4.7 4.7-10.3 7.1-16.9 7.1-6.7 0-12.2-2.4-16.9-7.1-4.7-4.7-7.1-10.3-7.1-16.9 0-6.6 2.4-12.2 7.1-16.9 4.6-4.7 10.3-7.1 16.9-7.1 6.7 0 12.2 2.4 16.9 7.1zm-28.2 5.6c-3.1 3.1-4.6 6.9-4.6 11.3s1.5 8.2 4.6 11.3c3.1 3.1 7 4.6 11.3 4.6s8.2-1.5 11.3-4.6c3.2-3.2 4.7-7 4.7-11.3s-1.6-8.2-4.7-11.3C356 9.6 352.2 8 347.8 8s-8.2 1.5-11.3 4.7zM419 0v48l-39.9-35.9V0L411 28.7V0h8z"/>
</svg>