<svg xmlns="http://www.w3.org/2000/svg" width="530.6" height="80.4">
  <style>
    .st0{fill:#ddd}
    .st1{fill:#e74400}
    .st2{fill:#ddd}
  </style>
  <path class="st0" d="M118.7 63.5c-2.2-2.2-3.9-4.7-5.2-7.7-1.3-2.9-1.9-6-1.9-9.2 0-3.3.7-6.4 1.9-9.4 1.3-2.9 3-5.4 5.2-7.6 2.2-2.2 4.7-3.9 7.7-5.2 2.9-1.3 6-1.9 9.3-1.9s6.4.6 9.3 1.9c2.9 1.3 5.5 3 7.7 5.2l-5.7 5.6c-3.2-3.1-7-4.6-11.3-4.6-2.2 0-4.3.4-6.2 1.2-2 .8-3.7 2-5.1 3.5-1.4 1.4-2.6 3.1-3.4 5-.8 2-1.3 4-1.3 6.2s.4 4.3 1.3 6.2c.8 1.9 2 3.6 3.5 5 1.4 1.5 3.1 2.6 5 3.5 2 .8 4 1.2 6.2 1.2l9.3 6.2c-2.9 1.3-6 1.9-9.3 1.9s-6.4-.7-9.3-1.9c-3-1.2-5.5-2.9-7.7-5.1zM195.3 29.7c4.7 4.7 7.1 10.3 7.1 16.9 0 6.7-2.4 12.3-7.1 16.9-4.7 4.7-10.3 7.1-16.9 7.1-6.7 0-12.2-2.4-16.9-7.1-4.7-4.7-7.1-10.3-7.1-16.9 0-6.6 2.4-12.2 7.1-16.9 4.6-4.7 10.3-7.1 16.9-7.1 6.7 0 12.3 2.4 16.9 7.1zm-28.2 5.6c-3.1 3.1-4.6 6.9-4.6 11.3s1.5 8.2 4.6 11.3c3.1 3.1 7 4.6 11.3 4.6s8.2-1.5 11.3-4.6c3.2-3.2 4.7-7 4.7-11.3s-1.6-8.2-4.7-11.3c-3.1-3.1-6.9-4.7-11.3-4.7s-8.1 1.5-11.3 4.7zM220.2 22.6v29.1l-8 8V22.6h8zm24 40v8h-32l8-8h24zM258.5 22.6v29.1l-8 8V22.6h8zm24 40v8h-32l8-8h24zM327 50.6c0 5.5-1.9 10.3-5.9 14.2-3.9 3.9-8.7 5.8-14.2 5.8s-10.2-1.9-14.1-5.8-5.8-8.7-5.8-14.2v-28h8v28c0 3.3 1.1 6.1 3.4 8.4 2.3 2.4 5.2 3.5 8.5 3.5s6.1-1.2 8.5-3.5c2.3-2.3 3.6-5.2 3.6-8.4h8zM344.4 50.6c-3.9 0-7.2-1.4-9.9-4.1-2.7-2.8-4.1-6.1-4.1-10 0-3.8 1.4-7.1 4.1-9.8 2.7-2.8 6-4.1 9.9-4.1v8c-.8 0-1.6.1-2.3.4-.8.3-1.4.7-2 1.3-.5.5-1 1.2-1.3 1.9-.3.7-.4 1.5-.4 2.3 0 1.7.5 3.1 1.7 4.3 1.2 1.2 2.6 1.8 4.3 1.8h11.9c3.9 0 7.2 1.4 9.9 4.1 2.8 2.8 4.1 6.1 4.1 9.9s-1.4 7.1-4.1 9.9c-2.7 2.7-6 4.1-9.9 4.1v-8c.8 0 1.6-.1 2.3-.4.8-.3 1.4-.7 2-1.3s1-1.1 1.3-1.9c.3-.7.5-1.5.5-2.3 0-1.6-.7-3-1.8-4.2-1.2-1.2-2.6-1.8-4.3-1.8h-11.9zM388.3 50.6c-3.9 0-7.2-1.4-9.9-4.1-2.7-2.8-4.1-6.1-4.1-10 0-3.8 1.4-7.1 4.1-9.8 2.7-2.8 6-4.1 9.9-4.1v8c-.8 0-1.6.1-2.3.4-.8.3-1.4.7-2 1.3-.5.5-1 1.2-1.3 1.9-.3.7-.4 1.5-.4 2.3 0 1.7.5 3.1 1.7 4.3 1.2 1.2 2.6 1.8 4.3 1.8h11.9c3.9 0 7.2 1.4 9.9 4.1 2.8 2.8 4.1 6.1 4.1 9.9s-1.4 7.1-4.1 9.9c-2.7 2.7-6 4.1-9.9 4.1v-8c.8 0 1.6-.1 2.3-.4.8-.3 1.4-.7 2-1.3s1-1.1 1.3-1.9c.3-.7.5-1.5.5-2.3 0-1.6-.7-3-1.8-4.2-1.2-1.2-2.6-1.8-4.3-1.8h-11.9zM430.2 62.6l-8 8v-48l8 7.9v32.1zM476.4 29.7c4.7 4.7 7.1 10.3 7.1 16.9 0 6.7-2.4 12.3-7.1 16.9-4.7 4.7-10.3 7.1-16.9 7.1-6.7 0-12.2-2.4-16.9-7.1-4.7-4.7-7.1-10.3-7.1-16.9 0-6.6 2.4-12.2 7.1-16.9 4.6-4.7 10.3-7.1 16.9-7.1 6.6 0 12.2 2.4 16.9 7.1zm-28.3 5.6c-3.1 3.1-4.6 6.9-4.6 11.3s1.5 8.2 4.6 11.3c3.1 3.1 7 4.6 11.3 4.6s8.2-1.5 11.3-4.6c3.2-3.2 4.7-7 4.7-11.3s-1.6-8.2-4.7-11.3c-3.1-3.1-6.9-4.7-11.3-4.7s-8.1 1.5-11.3 4.7zM530.6 22.6v48.1l-39.9-35.9V22.6l31.9 28.7V22.6h8z"/>
  <g>
    <path class="st1" d="M35.1 40.2h22.6v40.3H35.1z"/>
  </g>
  <g>
    <path class="st2" d="M0 19.4L11.4 0l34.7 20.3-11.4 19.4z"/>
  </g>
  <g>
    <path class="st2" d="M46.9 20.3l11.4 19.4L93 19.4 81.6 0z"/>
  </g>
</svg>